{"title":"I Am Ali 2014 480p HDRIP XVID AC3 ACAB","uid":11199631,"size":1932671916,"categoryP":"video","categoryS":"movies","magnet":"?xt=urn:btih:3bc0fbef8d80144c144093d3d9e1ae3c8e79d326&amp;dn=I+Am+Ali+2014+480p+HDRIP+XVID+AC3+ACAB&amp;tr=udp%3A%2F%2Ftracker.openbittorrent.com%3A80&amp;tr=udp%3A%2F%2Fopen.demonii.com%3A1337&amp;tr=udp%3A%2F%2Ftracker.coppersurfer.tk%3A6969&amp;tr=udp%3A%2F%2Fexodus.desync.com%3A6969","seeders":21,"leechers":2,"uploader":"xxxlavalxxx","files":-1,"time":1413151091,"description":"[IMG]http://i.imgur.com/uCbnkLy.jpg[/IMG]\n &lt;a href=&quot;\nhttp://www.imdb.com/title/tt4008652/&quot; rel=&quot;nofollow&quot; target=&quot;_NEW&quot;&gt;\nhttp://www.imdb.com/title/tt4008652/&lt;/a&gt;\n\n\nUnprecedented access to Muhammad Ali's personal archive of &quot;audio journals&quot; as well as interviews and testimonials from his inner circle of family and friends are used to tell the legend's life story.\n\nDirector: Clare Lewins\nWriter: Clare Lewins\nStars: Muhammad Ali, Muhammad Ali Jnr, Hana Ali \nGenres: Documentary | Biography | Sport\nCountry: UK | USA\nLanguage: English\n\n\nFormat: AVI\nFormat/Info: Audio Video Interleave\nFile size: 1.76 GiB\nDuration: 1h 51mn\nOverall bit rate: 2 255 Kbps\n\nVideo\nID: 0\nFormat: MPEG-4 Visual\nFormat profile: Advanced Simple@L5\nFormat settings, BVOP: 2\nFormat settings, QPel: No\nFormat settings, GMC: No warppoints\nFormat settings, Matrix: Default (H.263)\nMuxing mode: Packed bitstream\nCodec ID: XVID\nCodec ID/Hint: XviD\nDuration: 1h 51mn\nBit rate: 1 992 Kbps\nWidth: 848 pixels\nHeight: 480 pixels\nDisplay aspect ratio: 16:9\nFrame rate: 23.976 fps\nColor space: YUV\nChroma subsampling: 4:2:0\nBit depth: 8 bits\nScan type: Progressive\nCompression mode: Lossy\nBits/(Pixel*Frame): 0.204\nStream size: 1.55 GiB (88%)\nWriting library: XviD 65\n\nAudio\nID: 1\nFormat: AC-3\nFormat/Info: Audio Coding 3\nMode extension: CM (complete main)\nFormat settings, Endianness: Big\nCodec ID: 2000\nDuration: 1h 51mn\nBit rate mode: Constant\nBit rate: 256 Kbps\nChannel(s): 2 channels\nChannel positions: Front: L R\nSampling rate: 48.0 KHz\nBit depth: 16 bits\nCompression mode: Lossy\nStream size: 204 MiB (11%)\nAlignment: Aligned on interleaves\nInterleave, duration: 64 ms (1.53 video frames)\nInterleave, preload duration: 192 ms\n\n\nscreens\n &lt;a href=&quot;\nhttp://i.imgur.com/k5k9KWd.png&quot; rel=&quot;nofollow&quot; target=&quot;_NEW&quot;&gt;\nhttp://i.imgur.com/k5k9KWd.png&lt;/a&gt; &lt;a href=&quot;\nhttp://i.imgur.com/gejTtqc.png&quot; rel=&quot;nofollow&quot; target=&quot;_NEW&quot;&gt;\nhttp://i.imgur.com/gejTtqc.png&lt;/a&gt; &lt;a href=&quot;\nhttp://i.imgur.com/NYdZpFd.png&quot; rel=&quot;nofollow&quot; target=&quot;_NEW&quot;&gt;\nhttp://i.imgur.com/NYdZpFd.png&lt;/a&gt; &lt;a href=&quot;\nhttp://i.imgur.com/hevhB8I.png&quot; rel=&quot;nofollow&quot; target=&quot;_NEW&quot;&gt;\nhttp://i.imgur.com/hevhB8I.png&lt;/a&gt;","torrent":{"xt":"urn:btih:3bc0fbef8d80144c144093d3d9e1ae3c8e79d326","amp;dn":"I+Am+Ali+2014+480p+HDRIP+XVID+AC3+ACAB","amp;tr":["udp%3A%2F%2Ftracker.openbittorrent.com%3A80","udp%3A%2F%2Fopen.demonii.com%3A1337","udp%3A%2F%2Ftracker.coppersurfer.tk%3A6969","udp%3A%2F%2Fexodus.desync.com%3A6969"],"infoHash":"3bc0fbef8d80144c144093d3d9e1ae3c8e79d326","infoHashBuffer":{"type":"Buffer","data":[59,192,251,239,141,128,20,76,20,64,147,211,217,225,174,60,142,121,211,38]},"announce":[],"urlList":[]}}